<?xml version="1.0" encoding="UTF-8"?><svg id="Layer_2" xmlns="http://www.w3.org/2000/svg" viewBox="0 0 125.89 123.06"><defs><style>.cls-1{fill:#1f1f1d;}</style></defs><g id="Layer_1-2"><path class="cls-1" d="M36.7,95.39c-8.49-6-16.57-11.85-24.81-17.46-2.51-1.71-3.47-3.26-2.76-6.47C14.13,48.92,18.95,26.33,23.66,3.73,24.18,1.22,24.74-.06,27.63,0c17.64,.35,35.32-.19,52.9,.94,28.73,1.84,45.07,20.28,45.35,49.16,.17,18.05-3.97,34.57-15.36,48.91-12.97,16.33-30.66,23.04-50.72,23.71-19.29,.65-38.63,.17-57.94,.16-.42,0-.84-.21-1.85-.49,12.41-9.13,24.39-17.95,36.7-27.01Zm.02-.52c9.24,0,18.08,.53,26.83-.15,8.81-.69,16.24-4.94,21.3-12.39,7.54-11.08,10.28-23.34,7.83-36.57-1.95-10.52-9.05-16.92-20-17.62-7.12-.45-14.29-.09-21.79-.09-4.69,22.09-9.38,44.15-14.19,66.81Z"/></g></svg>