<?xml version="1.0" encoding="UTF-8"?><svg id="Layer_2" xmlns="http://www.w3.org/2000/svg" viewBox="0 0 468.11 470.28"><g id="Layer_2-2"><g id="Layer_1-2"><path d="M37.44,470.28c-5.38-.91-10.48-1.89-15.61-2.58-2.7-.36-3.46-.99-2.91-4.09,5.71-32.54,14.19-64.34,24.85-95.58,1.01-2.95,.9-4.75-2.17-6.95-17.53-12.6-30.13-29.51-41.6-49,12.03,3.66,23.01,6.99,35.71,10.85-11.03-20.7-18.57-41.33-24.72-64.04,9.97,6.61,18.83,12.48,28.18,18.68,19.44-61.85,59.81-109.05,106.62-153.47,1.01,14.88,1.94,28.71,2.88,42.53l.63,.28c.72-2.42,1.47-4.83,2.15-7.26,.7-2.51,1.38-5.03,1.98-7.57,3.11-13.01,6.58-25.95,9.13-39.06,1.13-5.8,5.52-8.06,9.15-10.96,20.21-16.09,41.31-30.93,65.02-42.81-6.88,14.24-13.76,28.47-20.64,42.71l1.15,.75c4.07-4.52,8.01-9.16,12.23-13.53,12.93-13.4,26.94-25.91,38.67-40.28,9.71-11.89,22.63-16.84,35.72-22.16,14.35-5.83,28.84-11.35,43.48-16.39,11.02-3.79,22.36-6.63,33.56-9.89l.57,1.16c-11.85,8.12-23.7,16.24-35.56,24.36l.31,.91c4.53-1.32,9.05-2.64,13.58-3.95,26.14-7.56,52.26-15.21,78.47-22.54,2.73-.76,6.32-.41,8.94,.74,14.73,6.44,22.98,22.55,20.45,39.69-2.95,20-13.24,35.98-24.72,51.59-3.4,4.63-7.76,8.57-11.04,13.27-5.55,7.93-14.36,8.64-22.45,10.69-16.9,4.29-33.93,8.09-50.91,12.07-1.07,.25-2.19,.24-3.29,1.11,14.95,1.19,29.9,2.39,46.26,3.7-5.59,3.87-10.08,7.24-14.83,10.17-5.29,3.25-10.77,6.2-16.29,9.06-1.52,.78-3.47,1.05-5.21,1.02-15.27-.25-30.55-.53-45.82-1-5.36-.16-10.7-.86-16.05-1.31l-.27,1.35c13.4,4.78,26.8,9.56,40.99,14.63-7.36,5.09-14.32,9.5-20.84,14.5-8.21,6.3-16.19,12.91-24.02,19.68-5.89,5.09-11.92,10.18-16.96,16.06-12.83,14.97-25.67,29.98-37.5,45.73-10.49,13.96-19.37,29.12-29.51,43.35-4.54,6.36-10.44,11.75-16.08,17.99-10.13-10.75-19.6-20.79-29.06-30.84-.27,.18-.55,.36-.82,.54,5.96,12.47,11.92,24.93,18.4,38.48-9.69,4.43-19.39,8.93-29.19,13.19-.58,.25-2.66-1.21-2.89-2.15-3.85-15.84-7.51-31.72-11.23-47.59-.06-.25-.4-.44-.67-.72-1.51,18.91-3.01,37.76-4.6,57.64-17.28,2.11-34.62,4.24-53.51,6.55,22.03-65.42,54.96-122.46,101.13-171.47,46.39-49.24,102.19-84.85,165.02-109.75-2.37-5.7-4.49-10.79-6.81-16.36-8.6,3.68-16.96,6.93-25.02,10.78-26.46,12.62-52.33,26.34-76.05,43.71-12.02,8.81-23.91,17.86-35.23,27.55s-22.62,19.61-32.54,30.67c-14.79,16.5-29,33.62-42.29,51.35-17.22,22.97-31.07,48.13-43.18,74.13-12.28,26.34-22.76,53.41-30.4,81.54-4.45,16.35-9.89,32.44-14.18,48.83-3.37,12.9-5.66,26.09-8.54,39.71h-.02Z"/></g></g></svg>