<?xml version="1.0" encoding="UTF-8"?><svg id="Layer_1" xmlns="http://www.w3.org/2000/svg" viewBox="0 0 351.11 322.03"><defs><style>.cls-1{fill:#27ad60;}</style></defs><g id="Layer_2"><g id="Layer_1-2"><path class="cls-1" d="M290.09,62.11c.43,0,9.94-.53,9.95,1.17,.1,34.84,.12,69.68,.07,104.51v125.1h23V29.13H29.29V293.5H221c0,9.2,.13,17.3-.15,25.4,0,1-2,2.3-3.39,2.88-1.13,.48-2.62,.12-4,.12H7.88q-7.71,0-7.72-7.87c0-102.17-.05-204.35-.16-306.52C0,2.08,2.21,.59,6.59,.11,8.09,0,9.59-.03,11.09,.02H344.2q6.9,0,6.91,6.65V314.23q0,6.67-6.88,6.68h-65.53q-6.4,0-6.41-6.64V134.37c-9.13,12.08-17.47,23.11-25.8,34.15l-65.66,87.07c-2.72,3.62-6,3.15-9,.69-10.11-8.27-20.09-16.71-30.12-25.07-13.47-11.22-27-22.38-40.35-33.75-1.28-1.4-1.99-3.22-2-5.12-.2-8.33-.16-16.67,0-25,0-1.66,.6-4.61,1.3-4.73,2.09-.36,4.88-.31,6.49,.84,5.5,3.94,10.65,8.37,15.86,12.71,11.99,10.05,24.01,20.14,36.05,30.26,4.12,3.46,8.19,7,12.5,10.68,14-18.41,27.42-36.21,41-53.9,14.87-19.41,29.9-38.7,44.8-58.09,11-14.29,21.83-28.66,32.73-43"/><path class="cls-1" d="M78,112.28v154.19q0,6.42-6.63,6.42c-4.5,0-9-.33-13.49,.1-4.88,.46-6-1.57-5.75-6,.33-5.82,.08-11.67,.08-17.5,0-61.67,.02-123.33,.07-185,0-2.09,.38-3.43,2.15-4.34,2.84-.52,3.68-.47,5.3,.88,17,14.19,33.91,28.55,50.91,42.78,22.06,18.47,44.15,36.91,66.28,55.31,.51,.43,.94,.94,1.42,1.4q8.29,7.89,1.43,17.26c-1.87,2.53-4.31,4.68-5.9,7.35-2.53,4.27-5.53,3.14-8.24,.87-11.56-9.65-22.89-19.57-34.43-29.25-13.3-11.16-26.74-22.15-40.09-33.24-4.11-3.49-8.2-7-13.11-11.23Z"/></g></g></svg>