<?xml version="1.0" encoding="UTF-8"?><svg id="Layer_2" xmlns="http://www.w3.org/2000/svg" viewBox="0 0 262.71 236.16"><defs><style>.cls-1{fill:#6a51f7;}.cls-2{fill:#9f3af8;}.cls-3{fill:#625ff1;}.cls-4{fill:#90bdfd;}.cls-5{fill:#b6b4fd;}.cls-6{fill:#c6b0fd;}.cls-7{fill:#d4adfc;}.cls-8{fill:#9048f3;}.cls-9{fill:#3a6af3;}.cls-10{fill:#535df6;}.cls-11{fill:#7cc1fa;}.cls-12{fill:#84c0fd;}.cls-13{fill:#7958ef;}.cls-14{fill:#a7b7fd;}.cls-15{fill:#9bbafc;}.cls-16{fill:#af3af2;}</style></defs><g id="Layer_1-2"><g><path class="cls-9" d="M25.38,193.33c-6.83-1.4-13.92-2.11-20.36-4.54-2.5-.94-5.59-6.32-4.93-8.74C12.16,135.7,24.65,91.46,37.31,47.27c3.72-12.98,8.89-25.56,12.14-38.64C51.68-.36,56.33-1.18,63.78,1.04c7.57,2.26,15.24,4.14,22.87,6.19,0,3.03-.01,6.07-.02,9.1-1.56,.06-3.19,.46-4.68,.14-22.57-4.77-22.12-4.67-28.62,17.7-13.29,45.73-27.26,91.26-40.44,137.02-1.03,3.59,.67,10.45,3.35,12.06,4.39,2.64,10.63,2.21,16.09,3.07-2.32,2.33-4.63,4.67-6.95,7Z"/><path class="cls-16" d="M235.38,42.54c7.38,1.54,15,2.4,22,4.98,2.64,.97,5.87,6.4,5.27,8.98-2.17,9.29-6.21,18.12-8.9,27.32-10.89,37.27-21.45,74.63-32.33,111.91-2.24,7.69-5.73,15.02-7.88,22.73-5.75,20.61-6.14,20.91-27.77,12.65,.02-3.01,.04-6.03,.05-9.04,5.63-1.49,13.46,8.33,17.09-4.11,13.8-47.38,28.24-94.57,42-141.95,5.54-19.08,5.02-19.23-14.19-24.92,0-2.82,0-5.64-.01-8.46l.08-.03c1.53-.01,3.06-.03,4.59-.04Z"/><path class="cls-13" d="M145.65,21.42c14.96,3.93,29.93,7.86,44.89,11.78-.03,3-.06,6.01-.09,9.01-15.74-4.03-31.48-8.06-47.22-12.09,.81-2.9,1.62-5.8,2.42-8.7Z"/><path class="cls-8" d="M190.45,42.22c.03-3,.06-6.01,.1-9.01l.18-.05c2.22,0,4.44-.02,6.67-.02,11.11,3.16,22.21,6.31,33.32,9.47,0,2.82,0,5.64,.01,8.46-13.42-2.95-26.85-5.9-40.27-8.85Z"/><path class="cls-10" d="M86.63,16.33c0-3.03,.01-6.07,.02-9.1,11.65,2.7,23.29,5.41,34.94,8.11-1.41,2.74-2.82,5.47-4.24,8.21-10.24-2.41-20.48-4.81-30.72-7.22Z"/><path class="cls-8" d="M162.2,226.03c-9.46-2.33-18.92-4.66-28.38-6.99,.02-3.07,.04-6.14,.07-9.2,10.26,3.01,20.51,6.03,30.77,9.04-.82,2.38-1.64,4.77-2.46,7.15Z"/><path class="cls-13" d="M133.9,209.84c-.02,3.07-.04,6.14-.07,9.2-10.23-2.34-20.45-4.68-30.68-7.02,.06-2.41,.12-4.82,.18-7.23,10.19,1.68,20.38,3.37,30.56,5.05Z"/><path class="cls-10" d="M25.38,193.33c2.32-2.33,4.63-4.67,6.95-7,10.29,2.29,20.59,4.59,30.88,6.88-2.47,2.5-4.93,4.99-7.4,7.49-10.14-2.46-20.29-4.91-30.43-7.37Z"/><path class="cls-1" d="M103.33,204.79c-.06,2.41-.12,4.82-.18,7.23-9.43-2.3-18.86-4.61-28.29-6.91,2.33-2.34,4.65-4.68,6.98-7.02,7.16,2.23,14.33,4.47,21.49,6.7Z"/><path class="cls-3" d="M81.84,198.08c-2.33,2.34-4.65,4.68-6.98,7.02-6.35-1.47-12.69-2.94-19.04-4.41,2.47-2.5,4.93-4.99,7.4-7.49,6.21,1.62,12.42,3.25,18.63,4.87Z"/><path class="cls-2" d="M162.2,226.03c.82-2.38,1.64-4.77,2.46-7.15,7.05,1.06,14.1,2.11,21.16,3.17-.02,3.01-.04,6.03-.05,9.04-7.85-1.69-15.71-3.37-23.56-5.06Z"/><path class="cls-3" d="M117.35,23.55c1.41-2.74,2.83-5.47,4.24-8.21,4.89,1.22,9.78,2.44,14.66,3.66-1.56,2.74-3.13,5.48-4.69,8.21-4.74-1.22-9.47-2.45-14.21-3.67Z"/><path class="cls-1" d="M131.56,27.22c1.56-2.74,3.13-5.48,4.69-8.21,3.13,.81,6.27,1.61,9.4,2.42-.81,2.9-1.62,5.8-2.42,8.7-3.89-.97-7.78-1.93-11.67-2.9Z"/><path class="cls-13" d="M197.39,33.14c-2.22,0-4.45,.02-6.67,.02,2.22,0,4.45-.02,6.67-.02Z"/><path class="cls-8" d="M235.38,42.54c-1.53,.01-3.06,.03-4.59,.04,1.53-.01,3.06-.03,4.59-.04Z"/><path class="cls-6" d="M110.27,145.94c-4.56-1.01-9.85-.95-13.46-3.37-2.94-1.98-3.87-6.94-5.69-10.57,23.64,.03,47.28,.05,70.92,.07-.8,3.14-1.6,6.29-2.39,9.43-13.33,0-26.66-.27-39.97,.21-3.18,.12-6.28,2.75-9.41,4.23Z"/><path class="cls-14" d="M93.55,122.61c.77-3.16,1.54-6.31,2.31-9.47,4.67,.03,9.34-.06,14,.11,18.92,.69,37.83,1.46,56.75,2.21-.77,3.14-1.54,6.28-2.31,9.42-4.14-.74-8.28-2.07-12.43-2.12-19.44-.24-38.88-.13-58.32-.14Z"/><path class="cls-5" d="M93.55,122.61c19.44,.01,38.88-.1,58.32,.14,4.15,.05,8.29,1.38,12.43,2.12-.75,2.4-1.5,4.8-2.25,7.19-23.64-.02-47.28-.05-70.92-.07,.81-3.13,1.62-6.25,2.42-9.38Z"/><path class="cls-15" d="M166.6,115.45c-18.92-.74-37.83-1.51-56.75-2.21-4.66-.17-9.33-.08-14-.11,.72-2.38,1.44-4.77,2.17-7.15,23.65,.04,47.3,.09,70.94,.13-.79,3.11-1.58,6.22-2.37,9.33Z"/><path class="cls-4" d="M168.97,106.13c-23.65-.04-47.29-.09-70.94-.13,.26-2.31,.53-4.63,.79-6.94,24.16,0,48.32,0,72.48,0l-2.33,7.08Z"/><path class="cls-12" d="M171.3,99.05c-24.16,0-48.32,0-72.48,0,.8-2.35,1.59-4.71,2.39-7.06,12.51-.85,25.02-1.7,37.53-2.55l32.56,9.61Z"/><path class="cls-7" d="M110.27,145.94c3.13-1.48,6.23-4.12,9.41-4.23,13.31-.48,26.65-.21,39.97-.21-.71,13.17-7.16,16.07-19.25,11.92-9.75-3.35-20.07-5.04-30.13-7.47Z"/><path class="cls-11" d="M138.73,89.44c-12.51,.85-25.02,1.7-37.53,2.55,1.19-11.68,10.1-10.07,17.32-8.99,6.9,1.03,13.49,4.2,20.21,6.44Z"/></g></g></svg>